<svg width="23" height="23" viewBox="0 0 23 23" fill="none" xmlns="http://www.w3.org/2000/svg">
<g id="coin-number">
<path id="Icon" d="M7.52973 7.31823C8.2725 4.4324 10.8922 2.30005 14.0098 2.30005C17.7051 2.30005 20.7008 5.29567 20.7008 8.99096C20.7008 11.9371 18.7967 14.4385 16.152 15.3316M7.52973 16.4121H8.9901M8.9901 16.4121H10.3492M8.9901 16.4121V11.0803C8.9901 11.0803 7.97062 11.7812 7.31738 12.2303M15.681 14.0091C15.681 17.7044 12.6854 20.7 8.9901 20.7C5.29482 20.7 2.29919 17.7044 2.29919 14.0091C2.29919 10.3139 5.29482 7.31823 8.9901 7.31823C12.6854 7.31823 15.681 10.3139 15.681 14.0091Z" stroke="white" stroke-width="2" stroke-linecap="round" stroke-linejoin="round"/>
</g>
</svg>
