<svg xmlns="http://www.w3.org/2000/svg" width="72" height="72" viewBox="0 0 72 72" fill="none">
<path d="M30 48H15V63M42 24H57V9M13.749 27.0102C15.4311 22.847 18.2473 19.2391 21.8777 16.5967C25.508 13.9542 29.8106 12.3826 34.2893 12.0615C38.768 11.7405 43.2442 12.6822 47.2143 14.7798C51.1844 16.8775 54.4837 20.0476 56.7423 23.9284M58.2527 44.9912C56.5706 49.1544 53.7544 52.7623 50.124 55.4047C46.4937 58.0472 42.1955 59.6169 37.7168 59.9379C33.2381 60.2589 28.7582 59.3174 24.7881 57.2197C20.818 55.1221 17.5165 51.9525 15.2578 48.0718" stroke="white" stroke-width="2" stroke-linecap="round" stroke-linejoin="round"/>
</svg>