<svg xmlns="http://www.w3.org/2000/svg" width="24" height="25" viewBox="0 0 24 25" fill="none">
<path d="M4.74791 8.57666L4.41669 12.2201C4.36763 12.7597 4.34289 13.0318 4.3878 13.29C4.42792 13.5208 4.50806 13.7428 4.62496 13.9458C4.7563 14.1738 4.95043 14.368 5.33647 14.754L10.512 19.9295C11.299 20.7165 11.6927 21.1103 12.148 21.2582C12.5496 21.3887 12.983 21.389 13.3847 21.2585C13.8414 21.1101 14.2382 20.7137 15.0302 19.9217L18.99 15.9619C19.7821 15.1699 20.1774 14.774 20.3258 14.3174C20.4563 13.9157 20.4555 13.4828 20.325 13.0811C20.1766 12.6244 19.7819 12.2287 18.9898 11.4367L13.8271 6.27393C13.4375 5.88436 13.2427 5.68956 13.0136 5.55762C12.8107 5.44072 12.5886 5.36024 12.3579 5.32012C12.0974 5.27484 11.823 5.29973 11.2743 5.34961L7.64449 5.6796C6.69973 5.76548 6.22705 5.80862 5.85738 6.01419C5.53145 6.19543 5.26277 6.46412 5.08152 6.79004C4.87698 7.15787 4.83432 7.62719 4.74929 8.56256L4.74791 8.57666Z" stroke="inherit" stroke-width="2" stroke-linecap="round" stroke-linejoin="round"/>
<path d="M9.71259 10.6446C10.1031 10.2541 10.1031 9.62092 9.71259 9.2304C9.32206 8.83987 8.68845 8.83987 8.29792 9.2304C7.9074 9.62092 7.90702 10.2539 8.29755 10.6445C8.68807 11.035 9.32206 11.0351 9.71259 10.6446Z" stroke="inherit" stroke-width="2" stroke-linecap="round" stroke-linejoin="round"/>
</svg>