<svg xmlns="http://www.w3.org/2000/svg" width="66" height="66" viewBox="0 0 66 66" fill="none">
<path d="M41.25 24.75L30.25 35.75L24.75 30.25M55 27.9539C55 46.0166 41.3378 54.1147 35.5459 56.7363L35.5386 56.7395C34.9295 57.0152 34.6241 57.1535 33.9319 57.2723C33.4935 57.3475 32.5092 57.3475 32.0709 57.2723C31.3759 57.153 31.0674 57.0143 30.4534 56.7363C24.6614 54.1147 11 46.0166 11 27.9539V17.0505C11 13.9702 11 12.429 11.5995 11.2524C12.1268 10.2175 12.9675 9.37677 14.0024 8.84946C15.179 8.25 16.7202 8.25 19.8005 8.25H46.2005C49.2808 8.25 50.8188 8.25 51.9953 8.84946C53.0302 9.37677 53.8738 10.2175 54.4011 11.2524C55 12.4278 55 13.9672 55 17.0415V27.9539Z" stroke="white" stroke-width="2" stroke-linecap="round" stroke-linejoin="round"/>
</svg>