<svg xmlns="http://www.w3.org/2000/svg" width="73" height="73" viewBox="0 0 73 73" fill="none">
<path d="M42.5833 18.25H18.25C15.4155 18.25 13.9975 18.25 12.8796 18.7131C11.389 19.3305 10.2055 20.5155 9.58807 22.006C9.125 23.124 9.125 24.5412 9.125 27.3757C14.1646 27.3757 18.25 31.4597 18.25 36.4993C18.25 41.5389 14.1646 45.625 9.125 45.625C9.125 48.4595 9.125 49.8767 9.58807 50.9947C10.2055 52.4852 11.389 53.6692 12.8796 54.2866C13.9975 54.7497 15.4155 54.75 18.25 54.75H42.5833M42.5833 18.25H54.75C57.5845 18.25 59.0017 18.25 60.1197 18.7131C61.6102 19.3305 62.7942 20.5155 63.4116 22.006C63.8747 23.124 63.8747 24.5412 63.8747 27.3757C58.8351 27.3757 54.75 31.4604 54.75 36.5C54.75 41.5396 58.8351 45.625 63.8747 45.625C63.8747 48.4595 63.8747 49.8767 63.4116 50.9947C62.7942 52.4852 61.6102 53.6692 60.1197 54.2866C59.0017 54.7497 57.5845 54.75 54.75 54.75H42.5833M42.5833 18.25V54.75" stroke="white" stroke-width="2" stroke-linecap="round" stroke-linejoin="round"/>
</svg>