<svg width="19" height="19" viewBox="0 0 19 19" fill="none" xmlns="http://www.w3.org/2000/svg">
<g id="users-profiles-01">
<path id="Icon" d="M12.6868 16.2851L12.687 13.7408C12.6872 12.3355 11.5479 11.1961 10.1426 11.1961H4.44477C3.03962 11.1961 1.90047 12.3352 1.90031 13.7403L1.90002 16.2851M17.0998 16.2852L17.1 13.741C17.1001 12.3356 15.9609 11.1963 14.5556 11.1963M12.1967 3.21446C12.8216 3.67809 13.2265 4.42135 13.2265 5.2592C13.2265 6.09704 12.8216 6.8403 12.1967 7.30393M9.89095 5.25906C9.89095 6.66433 8.75175 7.80352 7.34649 7.80352C5.94122 7.80352 4.80203 6.66433 4.80203 5.25906C4.80203 3.85379 5.94122 2.7146 7.34649 2.7146C8.75175 2.7146 9.89095 3.85379 9.89095 5.25906Z" stroke="white" stroke-width="2" stroke-linecap="round" stroke-linejoin="round"/>
</g>
</svg>
